<?xml version="1.0" encoding="utf-8"?>
<!-- Generator: Adobe Illustrator 17.1.0, SVG Export Plug-In . SVG Version: 6.00 Build 0)  -->
<!DOCTYPE svg PUBLIC "-//W3C//DTD SVG 1.1//EN" "http://www.w3.org/Graphics/SVG/1.1/DTD/svg11.dtd">
<svg version="1.1" id="Layer_1" xmlns="http://www.w3.org/2000/svg" xmlns:xlink="http://www.w3.org/1999/xlink" x="0px" y="0px"
	 viewBox="0 0 228.631 76.785" enable-background="new 0 0 228.631 76.785" xml:space="preserve">
<g>
	<g>
		<path fill="#F15D2A" d="M227.019,33.978c1.291-0.93,1.943-2.917,1.445-4.428l-8.709-26.813C219.265,1.225,217.567,0,215.983,0
			h-28.209c-1.58,0-3.281,1.227-3.771,2.737l-8.709,26.816c-0.49,1.51,0.154,3.494,1.453,4.431l22.801,16.571
			c1.281,0.932,3.391,0.932,4.668,0L227.019,33.978z"/>
		<path fill="#FFFFFF" d="M220.071,25.015c0.352,1.086-0.289,1.965-1.422,1.965h-33.344c-1.129,0-1.773-0.879-1.42-1.965
			l5.346-16.428c0.34-1.081,1.564-1.96,2.691-1.96h20.117c1.129,0,2.346,0.879,2.691,1.956l0.906,2.803
			c0.357,1.068-0.285,1.95-1.414,1.95h-16.531c-1.137,0-2.332,0.888-2.67,1.966l-0.887,2.861c-0.334,1.078,0.316,1.964,1.441,1.964
			h20.852c1.127,0,2.338,0.88,2.695,1.948L220.071,25.015z"/>
		<path fill="#FFFFFF" d="M189.671,34.511c-0.922-0.662-0.744-1.2,0.391-1.2h23.84c1.131,0,1.307,0.538,0.393,1.2l-10.641,7.74
			c-0.926,0.664-2.422,0.664-3.34,0L189.671,34.511z"/>
	</g>
</g>
</svg>
