<?xml version="1.0" standalone="no"?>
<!DOCTYPE svg PUBLIC "-//W3C//DTD SVG 1.1//EN" "http://www.w3.org/Graphics/SVG/1.1/DTD/svg11.dtd" >
<svg>
<metadata>
Created by FontForge 20120731 at Sat Sep 10 09:04:03 2016
 By Alex Cruikshank
Typeface (c) (your company). 2006. All Rights Reserved
</metadata>
<defs>
<font id="MecSoft_Font-1" horiz-adv-x="1139" >
  <font-face 
    font-family="MecSoft_Font-1"
    font-weight="400"
    font-stretch="normal"
    units-per-em="2048"
    panose-1="2 0 0 0 0 0 0 0 0 0"
    ascent="1638"
    descent="-410"
    x-height="942"
    cap-height="1312"
    bbox="-91 -392 1763 1483"
    underline-thickness="150"
    underline-position="-142"
    unicode-range="U+0020-F005"
  />
<missing-glyph horiz-adv-x="1536" 
d="M256 0v1280h1024v-1280h-1024zM288 32h960v1216h-960v-1216z" />
    <glyph glyph-name=".notdef" horiz-adv-x="1536" 
d="M256 0v1280h1024v-1280h-1024zM288 32h960v1216h-960v-1216z" />
    <glyph glyph-name=".null" horiz-adv-x="0" 
 />
    <glyph glyph-name="nonmarkingreturn" horiz-adv-x="569" 
 />
    <glyph glyph-name="space" unicode=" " horiz-adv-x="569" 
 />
    <glyph glyph-name="space" unicode="&#xa0;" horiz-adv-x="569" 
 />
    <glyph glyph-name="exclam" unicode="!" horiz-adv-x="509" 
d="M261 305v1089v-1089zM261 134v-31v31z" />
    <glyph glyph-name="quotedbl" unicode="&#x22;" horiz-adv-x="650" 
d="M170 841v466v-466zM474 841v475v-475z" />
    <glyph glyph-name="numbersign" unicode="#" horiz-adv-x="1019" 
d="M166 -28l261 1359zM572 -28l281 1363zM993 878h-972h972zM993 425h-972h972z" />
    <glyph glyph-name="dollar" unicode="$" horiz-adv-x="1019" 
d="M500 -188v1618v-1618zM827 1018q-16 120 -116 198q-95 74 -218 74q-112 0 -207 -74q-102 -79 -102 -188q0 -165 62 -234q41 -45 209 -95q194 -58 267 -104q131 -82 131 -223q0 -152 -112 -248q-108 -91 -263 -91t-232 75q-48 47 -78 149q-29 94 -54 110z" />
    <glyph glyph-name="percent" unicode="%" horiz-adv-x="1629" 
d="M1236 1335l-716 -1383zM106 997q0 141 66 233q75 105 210 105q142 0 218 -106q67 -94 67 -242q0 -144 -68 -239q-77 -107 -216 -107q-142 0 -215 112q-62 95 -62 244zM955 308q0 141 66 234q74 103 210 103q142 0 219 -105q67 -94 67 -242q0 -145 -68 -240
q-77 -106 -217 -106q-141 0 -215 112q-62 95 -62 244z" />
    <glyph glyph-name="ampersand" unicode="&#x26;" horiz-adv-x="1222" 
d="M1122 29q-17 25 -92 65q-14 8 -310 372q-298 369 -330 421q-58 96 -58 196q0 83 87 137q77 46 166 46q99 0 153 -65q52 -61 52 -161q0 -118 -164 -220q-151 -91 -303 -183q-164 -124 -164 -297q0 -151 115 -240q106 -79 262 -79q167 0 327 217q142 195 146 347z" />
    <glyph glyph-name="quotesingle" unicode="'" horiz-adv-x="349" 
d="M165 832v484v-484z" />
    <glyph glyph-name="parenleft" unicode="(" horiz-adv-x="610" 
d="M428 -385q-318 400 -318 860q0 435 318 860v-1720z" />
    <glyph glyph-name="parenright" unicode=")" horiz-adv-x="610" 
d="M226 1335q318 -425 318 -860q0 -457 -318 -860v1720z" />
    <glyph glyph-name="asterisk" unicode="*" horiz-adv-x="713" 
d="M580 1118l-235 -79zM345 1316v-277v277zM345 1039l148 -193zM115 1122l230 -83zM345 1039l-143 -202z" />
    <glyph glyph-name="plus" unicode="+" horiz-adv-x="1070" 
d="M972 647h-875h875zM530 205v875v-875z" />
    <glyph glyph-name="comma" unicode="," horiz-adv-x="509" 
d="M243 107q39 -28 39 -133q0 -133 -92 -193z" />
    <glyph glyph-name="hyphen" unicode="-" horiz-adv-x="610" 
d="M554 463h-503h503z" />
    <glyph glyph-name="hyphen" unicode="&#xad;" horiz-adv-x="610" 
d="M554 463h-503h503z" />
    <glyph glyph-name="period" unicode="." horiz-adv-x="509" 
d="M247 66v28v-28z" />
    <glyph glyph-name="slash" unicode="/" horiz-adv-x="509" 
d="M444 1341l-388 -1359z" />
    <glyph glyph-name="zero" unicode="0" horiz-adv-x="1025" 
d="M76 647q0 671 428 671t428 -671q0 -437 -190 -592q-94 -77 -238 -77q-428 0 -428 669z" />
    <glyph glyph-name="one" unicode="1" horiz-adv-x="1020" 
d="M435 1142l247 170v-1312z" />
    <glyph glyph-name="two" unicode="2" horiz-adv-x="1020" 
d="M82 938q18 110 45.5 169t73 97.5t111.5 70.5t127.5 39t127.5 0t125.5 -27.5t116 -70.5t84 -116t27.5 -139t-20.5 -132t-77.5 -111.5t-123 -89t-141 -66t-120.5 -50t-102.5 -59.5t-116.5 -105t-95.5 -125t-52 -120.5t-16 -79.5t-5 -23h879z" />
    <glyph glyph-name="three" unicode="3" horiz-adv-x="1025" 
d="M78 342q53 -364 418 -364q160 0 295 105q141 111 143 263q2 231 -107 308q-79 57 -296 57q-25 0 -88 -1h-94h339q180 81 180 273q0 146 -112 242q-106 92 -254 92q-264 0 -367 -203q-23 -47 -41 -134z" />
    <glyph glyph-name="four" unicode="4" horiz-adv-x="1020" 
d="M888 319h-883l742 1006v-1329z" />
    <glyph glyph-name="five" unicode="5" horiz-adv-x="1025" 
d="M888 1298h-656l-114 -692q0 4 27.5 29t68.5 52.5t80 52.5t79.5 41t81.5 29.5t89 20.5t116.5 -9t118.5 -41t88.5 -77.5t61.5 -120.5t23 -127.5t-13.5 -127.5t-41 -113.5t-84.5 -102.5t-114 -88.5t-136.5 -41t-141 -0.5t-132 38.5t-118.5 89t-68.5 116t-25 86.5l-4.5 30z
" />
    <glyph glyph-name="six" unicode="6" horiz-adv-x="1020" 
d="M73 513q79 140 196 232q136 106 278 106q174 0 283 -128q104 -121 104 -297q0 -189 -110 -315q-115 -133 -300 -133q-456 0 -456 636q0 704 471 704q155 0 253.5 -87t118.5 -240z" />
    <glyph glyph-name="seven" unicode="7" horiz-adv-x="1025" 
d="M87 1298h847q4 0 -9.5 -45.5t-47.5 -107t-68.5 -120.5t-73 -132t-77.5 -139t-70.5 -143.5t-63.5 -173t-50.5 -177.5t-27.5 -171l-9 -89z" />
    <glyph glyph-name="eight" unicode="8" horiz-adv-x="1020" 
d="M498 706q-171 14 -254 60q-117 66 -117 213q0 149 114 246q110 93 263 93q159 0 266 -91q115 -96 115 -252q0 -254 -387 -269q230 -30 306 -70q135 -73 135 -261q0 -181 -127 -292q-122 -105 -306 -105q-185 0 -306 107q-126 112 -126 295q0 187 126 256q67 37 298 70z
" />
    <glyph glyph-name="nine" unicode="9" horiz-adv-x="1018" 
d="M939 683q-41 -62 -218 -150t-257 -88q-176 0 -285 129q-103 121 -103 301q0 190 110 314q115 129 303 129q248 0 362 -206q88 -161 88 -429q0 -294 -89 -470q-117 -235 -381 -235q-154 0 -251.5 86t-117.5 239z" />
    <glyph glyph-name="colon" unicode=":" horiz-adv-x="509" 
d="M256 799v96v-96zM256 39v78v-78z" />
    <glyph glyph-name="semicolon" unicode=";" horiz-adv-x="510" 
d="M247 809v76v-76zM246 111q69 -50 69 -109q0 -75 -6 -84q-67 -114 -133 -139z" />
    <glyph glyph-name="semicolon" unicode="&#x37e;" horiz-adv-x="510" 
d="M247 809v76v-76zM246 111q69 -50 69 -109q0 -75 -6 -84q-67 -114 -133 -139z" />
    <glyph glyph-name="less" unicode="&#x3c;" horiz-adv-x="1075" 
d="M969 202l-869 447l869 442v-889z" />
    <glyph glyph-name="equal" unicode="=" horiz-adv-x="1080" 
d="M102 772h866h-866zM968 524h-866h866z" />
    <glyph glyph-name="greater" unicode="&#x3e;" horiz-adv-x="1075" 
d="M100 1091l869 -442l-869 -447v889z" />
    <glyph glyph-name="question" unicode="?" horiz-adv-x="1025" 
d="M80 956q47 379 425 379q173 0 291 -91q131 -100 131 -267q0 -102 -59 -188q-41 -60 -139 -147q-61 -54 -83 -80q-41 -47 -56 -99q-11 -43 -13 -140zM519 174q0 44 45 44t45 -44q0 -45 -45 -45t-45 45z" />
    <glyph glyph-name="at" unicode="@" horiz-adv-x="1858" 
d="M1226 1134q-28 -156 -57 -311q-44 -204 -116 -309q-97 -141 -261 -141q-128 0 -194 101q-55 86 -55 221q0 156 95 273q102 124 255 124q103 0 187.5 -83t84.5 -186q0 -59 -32 -183t-32 -185q0 -118 63 -111q191 24 315 189q117 158 117 359q0 263 -210 433
q-196 158 -463 158q-343 0 -542 -204.5t-199 -549.5q0 -315 233 -520q223 -198 538 -198q179 0 303 79q63 39 237 205z" />
    <glyph glyph-name="A" unicode="A" horiz-adv-x="1221" 
d="M964 524h-721h721zM0 0l601 1307l616 -1307h-1217z" />
    <glyph glyph-name="B" unicode="B" horiz-adv-x="1221" 
d="M909 701q138 46 168 148t19 161.5t-37 114.5t-57.5 88.5t-79.5 56.5t-238 28h-556v-1302h259q292 -1 330.5 -0.5t102.5 5t136.5 31.5t114 82t68.5 130t20.5 145.5t-23 127.5t-62.5 111.5t-165 72.5zM909 702l-776 -2h25z" />
    <glyph glyph-name="C" unicode="C" horiz-adv-x="1321" 
d="M1251 416q-53 -207 -191 -321q-141 -117 -352 -117q-406 0 -548 336q-69 163 -69 352q0 424 301 589q145 80 318 80q195 0 330 -98.5t189 -284.5z" />
    <glyph glyph-name="D" unicode="D" horiz-adv-x="1316" 
d="M141 0v1312h452q324 0 478.5 -159.5t154.5 -489.5q0 -351 -159 -506q-128 -126 -401 -150q-262 -3 -525 -7z" />
    <glyph glyph-name="E" unicode="E" horiz-adv-x="1216" 
d="M736 676h-591h591zM1039 1303h-898v-1298h929z" />
    <glyph glyph-name="F" unicode="F" horiz-adv-x="1130" 
d="M1051 1302h-972v-641v-670zM77 660h706h-132h-574z" />
    <glyph glyph-name="G" unicode="G" horiz-adv-x="1430" 
d="M1289 943q-32 118 -66 173t-84 96t-107 68t-125.5 38.5t-157.5 11.5t-150.5 -9t-123 -34t-127.5 -70.5t-118 -114t-82 -148t-39 -132t-13.5 -121t4.5 -146t32 -150t57 -127.5t77.5 -102.5t93.5 -82t113.5 -61.5t130 -38.5t132.5 -16t127.5 4.5t118.5 22.5t111.5 38.5
t107 59.5t88.5 61.5t41 32v474h-569z" />
    <glyph glyph-name="H" unicode="H" horiz-adv-x="1325" 
d="M1175 0v1312v-1312zM146 619h1029h-1029zM146 1312v-1312v1312z" />
    <glyph glyph-name="I" unicode="I" horiz-adv-x="514" 
d="M260 1312v-1312v1312z" />
    <glyph glyph-name="J" unicode="J" horiz-adv-x="925" 
d="M50 373q5 -95 14 -140.5t38.5 -95.5t73 -89t89 -52.5t97.5 -18t111.5 4.5t107.5 27t79.5 52.5t54.5 75.5t39 91t20 159v925z" />
    <glyph glyph-name="K" unicode="K" horiz-adv-x="1212" 
d="M305 0v1314v-536l627 540l-405 -349l680 -969h-902z" />
    <glyph glyph-name="L" unicode="L" horiz-adv-x="1029" 
d="M138 1314v-1317h820z" />
    <glyph glyph-name="M" unicode="M" horiz-adv-x="1499" 
d="M116 -3v1311l638 -1126l633 1139v-1318z" />
    <glyph glyph-name="N" unicode="N" horiz-adv-x="1322" 
d="M119 0v1318l1065 -1321v1330z" />
    <glyph glyph-name="O" unicode="O" horiz-adv-x="1430" 
d="M88 639q0 304 159 494q170 202 469 202q289 0 462 -198q165 -190 165 -483q0 -291 -166 -479q-173 -197 -462 -197q-278 0 -455 192q-172 188 -172 469z" />
    <glyph glyph-name="P" unicode="P" horiz-adv-x="1212" 
d="M205 537q100 -4 170.5 -6.5t143.5 0t137 11.5t116 27.5t95.5 39t82 61.5t59 88.5t25.5 107t2.5 109.5t-18.5 97.5t-45.5 84t-70.5 66.5t-98 50.5t-105 25t-120.5 9t-136.5 4.5h-242v-1316v132z" />
    <glyph glyph-name="Q" unicode="Q" horiz-adv-x="1421" 
d="M88 639q0 304 159 494q170 202 469 202q289 0 462 -198q165 -190 165 -483q0 -291 -166 -479q-173 -197 -462 -197q-278 0 -455 192q-172 188 -172 469zM807 259l602 -376l-220 139z" />
    <glyph glyph-name="R" unicode="R" horiz-adv-x="1316" 
d="M1214 0l-167 311v0v0q-2 2 -168 309zM337 601h280t148 9t123 18.5t114 32t98 59t57 80t34 109.5t0 123t-36 95.5t-59.5 75t-77.5 59t-91 34t-114 14t-153 2.5h-323v-1312v109v492z" />
    <glyph glyph-name="S" unicode="S" horiz-adv-x="1217" 
d="M1093 947q-23 142 -57 198.5t-86.5 95.5t-118.5 64t-111.5 29.5t-114 7t-132 -9t-122.5 -36.5t-114 -75t-82 -109.5t-27 -125.5t20.5 -116t52 -86.5t72.5 -59.5t107 -32t127.5 -4.5t116.5 4.5t130 -6.5t134 -20.5t111.5 -43.5t82 -77.5t36.5 -104.5t7 -104.5t-18 -93.5
t-52.5 -91t-91.5 -84.5t-120.5 -59t-125 -27t-127.5 0t-125.5 16t-98 24.5t-79.5 41t-70.5 52.5t-64 72.5t-45.5 93.5t-20 139z" />
    <glyph glyph-name="T" unicode="T" horiz-adv-x="1120" 
d="M560 0v1308h-515h1018h-71z" />
    <glyph glyph-name="U" unicode="U" horiz-adv-x="1321" 
d="M1175 1312v-752q0 -73 -7 -148t-22.5 -127.5t-43 -102.5t-71 -93t-123 -72.5t-152.5 -32t-118.5 -2.5t-116 11.5t-132 36.5t-107 68t-75 98t-43.5 114t-14 102v148v747z" />
    <glyph glyph-name="V" unicode="V" horiz-adv-x="1221" 
d="M-4 1306l662 -1312l552 1314z" />
    <glyph glyph-name="W" unicode="W" horiz-adv-x="1838" 
d="M76 1311l435 -1314l413 1160l392 -1160l447 1312z" />
    <glyph glyph-name="X" unicode="X" horiz-adv-x="1216" 
d="M110 1318l989 -1318l-498 660l-491 -657l989 1318z" />
    <glyph glyph-name="Y" unicode="Y" horiz-adv-x="1212" 
d="M-1 1305l636 -805l540 802l-543 -805v-500z" />
    <glyph glyph-name="Z" unicode="Z" horiz-adv-x="1234" 
d="M159 1311h935l-1012 -1311h1089z" />
    <glyph glyph-name="bracketleft" unicode="[" horiz-adv-x="519" 
d="M479 1237h-194v-1552h194v1552z" />
    <glyph glyph-name="backslash" unicode="\" horiz-adv-x="510" 
d="M59 1336l394 -1375z" />
    <glyph glyph-name="bracketright" unicode="]" horiz-adv-x="510" 
d="M33 -315h282v1552h-282v-1552z" />
    <glyph glyph-name="asciicircum" unicode="^" horiz-adv-x="861" 
d="M136 764l290 555l275 -555h-565z" />
    <glyph glyph-name="underscore" unicode="_" horiz-adv-x="1020" 
d="M-27 -247h1068h-1068z" />
    <glyph glyph-name="grave" unicode="`" horiz-adv-x="610" 
d="M377 1080l-167 233z" />
    <glyph glyph-name="a" unicode="a" horiz-adv-x="1020" 
d="M119 668q-1 98 56 149q38 50 121 79q95 34 216 34q47 0 61 -4q15 -7 46 -21q136 -52 162 -182q8 -39 8 -148l1 -418q8 -119 51 -195zM793 146q-181 -154 -362 -154q-139 0 -227 65q-98 72 -98 207q0 142 115 220q51 36 116 53q47 12 143 24q224 27 304 54z" />
    <glyph glyph-name="b" unicode="b" horiz-adv-x="1025" 
d="M145 831q82 72 106 87q56 39 128 51q46 8 86 8q123 0 222 -87q105 -92 133 -331q5 -45 5 -92q0 -173 -58 -269q-128 -211 -309 -217q-96 -4 -180 43q-34 19 -133 100v1175v-468z" />
    <glyph glyph-name="c" unicode="c" horiz-adv-x="911" 
d="M865 697q-22 59 -47 102.5t-68.5 86.5t-107.5 63.5t-125.5 23t-111.5 -9t-109 -39t-111.5 -66t-91 -134t-41 -209.5t22.5 -219t80 -168.5t130 -104.5t138.5 -45.5t139 7t132.5 45.5t100 95.5t68 118.5t21 134z" />
    <glyph glyph-name="d" unicode="d" horiz-adv-x="1016" 
d="M766 841q-109 132 -272 132q-204 0 -308 -166q-89 -138 -89 -351q0 -198 111 -333q119 -145 312 -145q162 0 246 146l1 1175z" />
    <glyph glyph-name="e" unicode="e" horiz-adv-x="1020" 
d="M73 437h879q-9 105 -27.5 191.5t-59.5 155t-113.5 116t-159 61.5t-171 0t-155 -59.5t-132 -152.5t-64 -182t2 -173t43.5 -177.5t114 -143.5t173 -82t198 -6.5t173 61.5t107.5 116t61.5 130z" />
    <glyph glyph-name="f" unicode="f" horiz-adv-x="509" 
d="M27 949h479h-479zM236 0v1132q0 84 72 150.5t157 66.5q11 0 110 -30z" />
    <glyph glyph-name="g" unicode="g" horiz-adv-x="1018" 
d="M897 328q-164 -328 -427 -328q-195 0 -308 146q-103 133 -103 335q0 197 94 334q108 158 268 176q216 31 476 -40v-822q0 -254 -83 -372q-101 -142 -347 -142q-165 0 -264 69q-115 79 -112 238z" />
    <glyph glyph-name="h" unicode="h" horiz-adv-x="1020" 
d="M275 -2v1321v-1321zM829 -2v621q-8 39 -17 78t-37 67q-45 43 -97 57q-73 18 -148 9q-82 -11 -144 -56q-45 -33 -83 -101q-16 -29 -21 -67q-6 -66 -7 -73z" />
    <glyph glyph-name="i" unicode="i" horiz-adv-x="405" 
d="M202 0v951v-951zM191 1197q0 15 15 15t15 -15t-15 -15t-15 15z" />
    <glyph glyph-name="j" unicode="j" horiz-adv-x="401" 
d="M192 1197q0 15 15 15t15 -15t-15 -15t-15 15zM200 943v-1120q-4 -41 -11 -82t-27.5 -73t-47.5 -41t-72.5 -9t-68.5 7t-64 16z" />
    <glyph glyph-name="k" unicode="k" horiz-adv-x="916" 
d="M275 0v1312v-1312zM665 954q-392 -364 -392 -372zM709 0l-436 582z" />
    <glyph glyph-name="l" unicode="l" horiz-adv-x="405" 
d="M196 1310l1 -1307z" />
    <glyph glyph-name="m" unicode="m" horiz-adv-x="1526" 
d="M184 954v-954v954zM184 817q99 155 288 155q210 0 269 -166q113 166 293 166q294 0 294 -319v-653zM741 0v806v-806z" />
    <glyph glyph-name="n" unicode="n" horiz-adv-x="1020" 
d="M192 0v951v-951zM192 815q107 157 304 157q187 0 263 -106q62 -89 62 -281v-585z" />
    <glyph glyph-name="o" unicode="o" horiz-adv-x="1020" 
d="M60 475q0 264 147 391q122 106 299 106q210 0 331 -139q114 -130 114 -344q0 -333 -216 -452q-106 -58 -229 -58q-219 0 -337 142q-109 132 -109 354z" />
    <glyph glyph-name="p" unicode="p" horiz-adv-x="1025" 
d="M171 98q90 -96 275 -96q191 0 301 141q101 129 101 324q0 291 -143 407q-125 101 -416 101q-71 0 -118 -15v-1315v453z" />
    <glyph glyph-name="q" unicode="q" horiz-adv-x="1025" 
d="M826 -392l5 1215q-101 149 -277 149q-200 0 -306 -149q-95 -131 -95 -339q0 -205 102 -346q115 -159 312 -159q155 0 259 122v-493z" />
    <glyph glyph-name="r" unicode="r" horiz-adv-x="610" 
d="M145 951v-951v951zM147 806q91 166 206 166q81 0 165 -52z" />
    <glyph glyph-name="s" unicode="s" horiz-adv-x="916" 
d="M815 711q-54 141 -109 182t-123 59t-157 16t-157.5 -20.5t-123 -77.5t-63.5 -129.5t11.5 -121t77.5 -96t136.5 -57t134 4.5t118.5 20.5t148.5 -20.5t116 -93t20.5 -143.5t-79.5 -146t-169 -90.5t-182 -13.5t-152.5 34t-116.5 75t-61.5 95.5t-29 89z" />
    <glyph glyph-name="t" unicode="t" horiz-adv-x="510" 
d="M232 1230v-1089q0 -41 14.5 -67.5t56.5 -65.5q38 -19 96 -19q74 0 111 15zM51 825h410h-410z" />
    <glyph glyph-name="u" unicode="u" horiz-adv-x="1018" 
d="M834 0v951v-951zM834 140q-99 -161 -294 -161q-184 0 -260 104q-65 90 -65 279v589z" />
    <glyph glyph-name="v" unicode="v" horiz-adv-x="910" 
d="M27 942l451 -937l423 937h-874z" />
    <glyph glyph-name="w" unicode="w" horiz-adv-x="1321" 
d="M5 957l373 -957l278 729l278 -738l373 966h-1302z" />
    <glyph glyph-name="x" unicode="x" horiz-adv-x="916" 
d="M136 943l658 -943zM782 954l-670 -954z" />
    <glyph glyph-name="y" unicode="y" horiz-adv-x="916" 
d="M827 943l-363 -943zM109 961l356 -965q-18 -72 -30.5 -109.5t-28 -78t-49.5 -72.5t-63 -43.5t-61 -15.5t-53 2.5t-62 24.5z" />
    <glyph glyph-name="z" unicode="z" horiz-adv-x="916" 
d="M73 952h774l-811 -952h843z" />
    <glyph glyph-name="braceleft" unicode="{" horiz-adv-x="610" 
d="M574 1198q-82 -5 -127.5 -23t-54.5 -59t-4.5 -114t0 -159.5t-16 -152.5t-45.5 -114t-82 -75t-48 -23q86 -50 113.5 -82t50.5 -91t29.5 -145.5t2 -170.5t4.5 -136.5t39 -75t68.5 -22.5t65.5 4z" />
    <glyph glyph-name="bar" unicode="|" horiz-adv-x="478" 
d="M168 1335v-1720v1720z" />
    <glyph glyph-name="braceright" unicode="}" horiz-adv-x="684" 
d="M201 -241q27 -4 65.5 -4t68.5 22.5t39 75t4.5 136.5t2 170.5t29.5 145.5t50.5 91t113.5 82q0 -4 -48 23t-82 75t-45.5 114t-16 152.5t0 159.5t-4.5 114t-54.5 59t-127.5 23z" />
    <glyph glyph-name="asciitilde" unicode="~" horiz-adv-x="1075" 
d="M78 683q57 55 89.5 70t62.5 25t65 11t77.5 -4t95 -21t81.5 -23.5t70 -30t85 -32.5t94 -4t87.5 27.5t61 41.5t48.5 52z" />
    <glyph glyph-name="Adieresis" unicode="&#xc4;" horiz-adv-x="1366" 
 />
    <glyph glyph-name="Aring" unicode="&#xc5;" horiz-adv-x="1366" 
 />
    <glyph glyph-name="Ccedilla" unicode="&#xc7;" horiz-adv-x="1479" 
 />
    <glyph glyph-name="Eacute" unicode="&#xc9;" horiz-adv-x="1366" 
 />
    <glyph glyph-name="Ntilde" unicode="&#xd1;" horiz-adv-x="1479" 
 />
    <glyph glyph-name="Odieresis" unicode="&#xd6;" horiz-adv-x="1593" 
 />
    <glyph glyph-name="Udieresis" unicode="&#xdc;" horiz-adv-x="1479" 
 />
    <glyph glyph-name="aacute" unicode="&#xe1;" 
 />
    <glyph glyph-name="agrave" unicode="&#xe0;" 
 />
    <glyph glyph-name="acircumflex" unicode="&#xe2;" 
 />
    <glyph glyph-name="adieresis" unicode="&#xe4;" 
 />
    <glyph glyph-name="atilde" unicode="&#xe3;" 
 />
    <glyph glyph-name="aring" unicode="&#xe5;" 
 />
    <glyph glyph-name="ccedilla" unicode="&#xe7;" horiz-adv-x="1024" 
 />
    <glyph glyph-name="eacute" unicode="&#xe9;" 
 />
    <glyph glyph-name="egrave" unicode="&#xe8;" 
 />
    <glyph glyph-name="ecircumflex" unicode="&#xea;" 
 />
    <glyph glyph-name="edieresis" unicode="&#xeb;" 
 />
    <glyph glyph-name="iacute" unicode="&#xed;" horiz-adv-x="569" 
 />
    <glyph glyph-name="igrave" unicode="&#xec;" horiz-adv-x="569" 
 />
    <glyph glyph-name="icircumflex" unicode="&#xee;" horiz-adv-x="569" 
 />
    <glyph glyph-name="idieresis" unicode="&#xef;" horiz-adv-x="569" 
 />
    <glyph glyph-name="ntilde" unicode="&#xf1;" 
 />
    <glyph glyph-name="oacute" unicode="&#xf3;" 
 />
    <glyph glyph-name="ograve" unicode="&#xf2;" 
 />
    <glyph glyph-name="ocircumflex" unicode="&#xf4;" 
 />
    <glyph glyph-name="odieresis" unicode="&#xf6;" 
 />
    <glyph glyph-name="otilde" unicode="&#xf5;" 
 />
    <glyph glyph-name="uacute" unicode="&#xfa;" 
 />
    <glyph glyph-name="ugrave" unicode="&#xf9;" 
 />
    <glyph glyph-name="ucircumflex" unicode="&#xfb;" 
 />
    <glyph glyph-name="udieresis" unicode="&#xfc;" 
 />
    <glyph glyph-name="dagger" unicode="&#x2020;" 
 />
    <glyph glyph-name="degree" unicode="&#xb0;" horiz-adv-x="733" 
d="M114 1087q0 103 72 175.5t176 72.5q105 0 177 -72t72 -176q0 -105 -72 -177t-177 -72t-176.5 72t-71.5 177z" />
    <glyph glyph-name="cent" unicode="&#xa2;" horiz-adv-x="916" 
d="M881 328q-25 -161 -129 -254q-106 -95 -267 -95q-214 0 -327 143q-105 130 -105 350q0 328 206 442q105 58 227 58q322 0 380 -301zM789 1276l-602 -1520z" />
    <glyph glyph-name="sterling" unicode="&#xa3;" horiz-adv-x="1222" 
d="M916 1054q-17 99 -45 132.5t-64.5 54t-73 22t-85 -6t-77.5 -23.5t-55.5 -36.5t-44 -52.5t-43.5 -147.5t-35 -191.5t-25 -203t-20.5 -292t-3 -225t1.5 -63h-187h184l842 -3zM226 554h652h-9h-643z" />
    <glyph glyph-name="section" unicode="&#xa7;" 
 />
    <glyph glyph-name="bullet" unicode="&#x2022;" horiz-adv-x="717" 
 />
    <glyph glyph-name="paragraph" unicode="&#xb6;" horiz-adv-x="1100" 
 />
    <glyph glyph-name="germandbls" unicode="&#xdf;" horiz-adv-x="1251" 
 />
    <glyph glyph-name="registered" unicode="&#xae;" horiz-adv-x="1350" 
d="M678 1335q279 0 477 -198.5t198 -477.5q0 -280 -197.5 -477.5t-477.5 -197.5q-279 0 -477.5 198t-198.5 477q0 280 198 478t478 198zM448 297v727h249q311 0 311 -197q0 -87 -61 -144q-58 -54 -147 -61q68 -27 149 -147q55 -88 109 -178h-143q-54 98 -107 194
q-81 115 -174 115h-69v-309h-117z" />
    <glyph glyph-name="copyright" unicode="&#xa9;" horiz-adv-x="1350" 
d="M1005 517q-28 -115 -119 -181q-86 -64 -207 -64q-169 0 -264 110q-91 104 -91 275q0 175 92 276q96 105 270 105q243 0 305 -211zM678 1335q279 0 477 -198.5t198 -477.5q0 -280 -197.5 -477.5t-477.5 -197.5q-279 0 -477.5 197.5t-198.5 477.5t198 478t478 198z" />
    <glyph glyph-name="trademark" unicode="&#x2122;" horiz-adv-x="2048" 
 />
    <glyph glyph-name="acute" unicode="&#xb4;" horiz-adv-x="682" 
 />
    <glyph glyph-name="dieresis" unicode="&#xa8;" horiz-adv-x="682" 
 />
    <glyph glyph-name="notequal" unicode="&#x2260;" horiz-adv-x="1124" 
 />
    <glyph glyph-name="AE" unicode="&#xc6;" horiz-adv-x="2048" 
 />
    <glyph glyph-name="Oslash" unicode="&#xd8;" horiz-adv-x="1593" 
 />
    <glyph glyph-name="infinity" unicode="&#x221e;" horiz-adv-x="1460" 
 />
    <glyph glyph-name="plusminus" unicode="&#xb1;" horiz-adv-x="1070" 
d="M972 647h-875h875zM530 205v875v-875zM97 100h875h-875z" />
    <glyph glyph-name="lessequal" unicode="&#x2264;" horiz-adv-x="1124" 
 />
    <glyph glyph-name="greaterequal" unicode="&#x2265;" horiz-adv-x="1124" 
 />
    <glyph glyph-name="yen" unicode="&#xa5;" 
 />
    <glyph glyph-name="mu" unicode="&#xb5;" horiz-adv-x="1180" 
 />
    <glyph glyph-name="partialdiff" unicode="&#x2202;" horiz-adv-x="1012" 
 />
    <glyph glyph-name="summation" unicode="&#x2211;" horiz-adv-x="1460" 
 />
    <glyph glyph-name="product" unicode="&#x220f;" horiz-adv-x="1686" 
 />
    <glyph glyph-name="glyph155" horiz-adv-x="1124" 
 />
    <glyph glyph-name="integral" unicode="&#x222b;" horiz-adv-x="561" 
 />
    <glyph glyph-name="ordfeminine" unicode="&#xaa;" horiz-adv-x="758" 
 />
    <glyph glyph-name="ordmasculine" unicode="&#xba;" horiz-adv-x="748" 
 />
    <glyph glyph-name="Omega" unicode="&#x2126;" horiz-adv-x="1573" 
 />
    <glyph glyph-name="ae" unicode="&#xe6;" horiz-adv-x="1821" 
 />
    <glyph glyph-name="oslash" unicode="&#xf8;" horiz-adv-x="1251" 
 />
    <glyph glyph-name="questiondown" unicode="&#xbf;" horiz-adv-x="1251" 
 />
    <glyph glyph-name="exclamdown" unicode="&#xa1;" horiz-adv-x="682" 
 />
    <glyph glyph-name="logicalnot" unicode="&#xac;" horiz-adv-x="1196" 
 />
    <glyph glyph-name="radical" unicode="&#x221a;" horiz-adv-x="1124" 
 />
    <glyph glyph-name="florin" unicode="&#x192;" 
 />
    <glyph glyph-name="approxequal" unicode="&#x2248;" horiz-adv-x="1124" 
 />
    <glyph glyph-name="Delta" unicode="&#x2206;" horiz-adv-x="1253" 
 />
    <glyph glyph-name="guillemotleft" unicode="&#xab;" 
 />
    <glyph glyph-name="guillemotright" unicode="&#xbb;" 
 />
    <glyph glyph-name="ellipsis" unicode="&#x2026;" horiz-adv-x="2048" 
 />
    <glyph glyph-name="Agrave" unicode="&#xc0;" horiz-adv-x="1366" 
 />
    <glyph glyph-name="Atilde" unicode="&#xc3;" horiz-adv-x="1366" 
 />
    <glyph glyph-name="Otilde" unicode="&#xd5;" horiz-adv-x="1593" 
 />
    <glyph glyph-name="OE" unicode="&#x152;" horiz-adv-x="2048" 
 />
    <glyph glyph-name="oe" unicode="&#x153;" horiz-adv-x="1933" 
 />
    <glyph glyph-name="endash" unicode="&#x2013;" 
 />
    <glyph glyph-name="emdash" unicode="&#x2014;" horiz-adv-x="2048" 
 />
    <glyph glyph-name="quotedblleft" unicode="&#x201c;" horiz-adv-x="682" 
 />
    <glyph glyph-name="quotedblright" unicode="&#x201d;" horiz-adv-x="682" 
 />
    <glyph glyph-name="quoteleft" unicode="&#x2018;" horiz-adv-x="455" 
 />
    <glyph glyph-name="quoteright" unicode="&#x2019;" horiz-adv-x="455" 
 />
    <glyph glyph-name="divide" unicode="&#xf7;" horiz-adv-x="1124" 
 />
    <glyph glyph-name="lozenge" unicode="&#x25ca;" horiz-adv-x="1012" 
 />
    <glyph glyph-name="ydieresis" unicode="&#xff;" horiz-adv-x="1024" 
 />
    <glyph glyph-name="Ydieresis" unicode="&#x178;" horiz-adv-x="1366" 
 />
    <glyph glyph-name="fraction" unicode="&#x2044;" horiz-adv-x="342" 
 />
    <glyph glyph-name="fraction" unicode="&#x2215;" horiz-adv-x="342" 
 />
    <glyph glyph-name="Euro" unicode="&#x20ac;" 
 />
    <glyph glyph-name="guilsinglleft" unicode="&#x2039;" horiz-adv-x="682" 
 />
    <glyph glyph-name="guilsinglright" unicode="&#x203a;" horiz-adv-x="682" 
 />
    <glyph glyph-name="uniF001" unicode="&#xf001;" horiz-adv-x="1024" 
 />
    <glyph glyph-name="uniF001" unicode="&#xfb01;" horiz-adv-x="1024" 
 />
    <glyph glyph-name="uniF002" unicode="&#xf002;" horiz-adv-x="1024" 
 />
    <glyph glyph-name="uniF002" unicode="&#xfb02;" horiz-adv-x="1024" 
 />
    <glyph glyph-name="daggerdbl" unicode="&#x2021;" 
 />
    <glyph glyph-name="periodcentered" unicode="&#xb7;" horiz-adv-x="569" 
 />
    <glyph glyph-name="periodcentered" unicode="&#x2219;" horiz-adv-x="569" 
 />
    <glyph glyph-name="quotesinglbase" unicode="&#x201a;" horiz-adv-x="455" 
 />
    <glyph glyph-name="quotedblbase" unicode="&#x201e;" horiz-adv-x="682" 
 />
    <glyph glyph-name="perthousand" unicode="&#x2030;" horiz-adv-x="2048" 
 />
    <glyph glyph-name="Acircumflex" unicode="&#xc2;" horiz-adv-x="1366" 
 />
    <glyph glyph-name="Ecircumflex" unicode="&#xca;" horiz-adv-x="1366" 
 />
    <glyph glyph-name="Aacute" unicode="&#xc1;" horiz-adv-x="1366" 
 />
    <glyph glyph-name="Edieresis" unicode="&#xcb;" horiz-adv-x="1366" 
 />
    <glyph glyph-name="Egrave" unicode="&#xc8;" horiz-adv-x="1366" 
 />
    <glyph glyph-name="Iacute" unicode="&#xcd;" horiz-adv-x="569" 
 />
    <glyph glyph-name="Icircumflex" unicode="&#xce;" horiz-adv-x="569" 
 />
    <glyph glyph-name="Idieresis" unicode="&#xcf;" horiz-adv-x="569" 
 />
    <glyph glyph-name="Igrave" unicode="&#xcc;" horiz-adv-x="569" 
 />
    <glyph glyph-name="Oacute" unicode="&#xd3;" horiz-adv-x="1593" 
 />
    <glyph glyph-name="Ocircumflex" unicode="&#xd4;" horiz-adv-x="1593" 
 />
    <glyph glyph-name="Ograve" unicode="&#xd2;" horiz-adv-x="1593" 
 />
    <glyph glyph-name="Uacute" unicode="&#xda;" horiz-adv-x="1479" 
 />
    <glyph glyph-name="Ucircumflex" unicode="&#xdb;" horiz-adv-x="1479" 
 />
    <glyph glyph-name="Ugrave" unicode="&#xd9;" horiz-adv-x="1479" 
 />
    <glyph glyph-name="dotlessi" unicode="&#x131;" horiz-adv-x="569" 
 />
    <glyph glyph-name="circumflex" unicode="&#x2c6;" horiz-adv-x="682" 
 />
    <glyph glyph-name="tilde" unicode="&#x2dc;" horiz-adv-x="682" 
 />
    <glyph glyph-name="uni02C9" unicode="&#x2c9;" horiz-adv-x="682" 
 />
    <glyph glyph-name="breve" unicode="&#x2d8;" horiz-adv-x="682" 
 />
    <glyph glyph-name="dotaccent" unicode="&#x2d9;" horiz-adv-x="682" 
 />
    <glyph glyph-name="ring" unicode="&#x2da;" horiz-adv-x="682" 
 />
    <glyph glyph-name="cedilla" unicode="&#xb8;" horiz-adv-x="682" 
 />
    <glyph glyph-name="hungarumlaut" unicode="&#x2dd;" horiz-adv-x="682" 
 />
    <glyph glyph-name="ogonek" unicode="&#x2db;" horiz-adv-x="682" 
 />
    <glyph glyph-name="caron" unicode="&#x2c7;" horiz-adv-x="682" 
 />
    <glyph glyph-name="Lslash" unicode="&#x141;" 
 />
    <glyph glyph-name="lslash" unicode="&#x142;" horiz-adv-x="455" 
 />
    <glyph glyph-name="Scaron" unicode="&#x160;" horiz-adv-x="1366" 
 />
    <glyph glyph-name="scaron" unicode="&#x161;" horiz-adv-x="1024" 
 />
    <glyph glyph-name="Zcaron" unicode="&#x17d;" horiz-adv-x="1251" 
 />
    <glyph glyph-name="zcaron" unicode="&#x17e;" horiz-adv-x="1024" 
 />
    <glyph glyph-name="brokenbar" unicode="&#xa6;" horiz-adv-x="532" 
 />
    <glyph glyph-name="Eth" unicode="&#xd0;" horiz-adv-x="1479" 
 />
    <glyph glyph-name="eth" unicode="&#xf0;" 
 />
    <glyph glyph-name="Yacute" unicode="&#xdd;" horiz-adv-x="1366" 
 />
    <glyph glyph-name="yacute" unicode="&#xfd;" horiz-adv-x="1024" 
 />
    <glyph glyph-name="Thorn" unicode="&#xde;" horiz-adv-x="1366" 
 />
    <glyph glyph-name="thorn" unicode="&#xfe;" 
 />
    <glyph glyph-name="minus" unicode="&#x2212;" horiz-adv-x="1196" 
 />
    <glyph glyph-name="multiply" unicode="&#xd7;" horiz-adv-x="1196" 
 />
    <glyph glyph-name="uni00B9" unicode="&#xb9;" horiz-adv-x="682" 
 />
    <glyph glyph-name="uni00B2" unicode="&#xb2;" horiz-adv-x="682" 
 />
    <glyph glyph-name="uni00B3" unicode="&#xb3;" horiz-adv-x="682" 
 />
    <glyph glyph-name="onehalf" unicode="&#xbd;" horiz-adv-x="1708" 
 />
    <glyph glyph-name="onequarter" unicode="&#xbc;" horiz-adv-x="1708" 
 />
    <glyph glyph-name="threequarters" unicode="&#xbe;" horiz-adv-x="1708" 
 />
    <glyph glyph-name="franc" unicode="&#x20a3;" 
 />
    <glyph glyph-name="Gbreve" unicode="&#x11e;" horiz-adv-x="1593" 
 />
    <glyph glyph-name="gbreve" unicode="&#x11f;" 
 />
    <glyph glyph-name="Idotaccent" unicode="&#x130;" horiz-adv-x="569" 
 />
    <glyph glyph-name="Scedilla" unicode="&#x15e;" horiz-adv-x="1366" 
 />
    <glyph glyph-name="scedilla" unicode="&#x15f;" horiz-adv-x="1024" 
 />
    <glyph glyph-name="Cacute" unicode="&#x106;" horiz-adv-x="1479" 
 />
    <glyph glyph-name="cacute" unicode="&#x107;" horiz-adv-x="1024" 
 />
    <glyph glyph-name="Ccaron" unicode="&#x10c;" horiz-adv-x="1479" 
 />
    <glyph glyph-name="ccaron" unicode="&#x10d;" horiz-adv-x="1024" 
 />
    <glyph glyph-name="dcroat" unicode="&#x111;" 
 />
    <glyph glyph-name="currency" unicode="&#xa4;" 
 />
    <glyph glyph-name="macron" unicode="&#xaf;" horiz-adv-x="1131" 
 />
    <glyph glyph-name="Amacron" unicode="&#x100;" horiz-adv-x="1366" 
 />
    <glyph glyph-name="amacron" unicode="&#x101;" 
 />
    <glyph glyph-name="Abreve" unicode="&#x102;" horiz-adv-x="1366" 
 />
    <glyph glyph-name="abreve" unicode="&#x103;" 
 />
    <glyph glyph-name="Aogonek" unicode="&#x104;" horiz-adv-x="1366" 
 />
    <glyph glyph-name="aogonek" unicode="&#x105;" 
 />
    <glyph glyph-name="Ccircumflex" unicode="&#x108;" horiz-adv-x="1479" 
 />
    <glyph glyph-name="ccircumflex" unicode="&#x109;" horiz-adv-x="1024" 
 />
    <glyph glyph-name="Cdotaccent" unicode="&#x10a;" horiz-adv-x="1479" 
 />
    <glyph glyph-name="cdotaccent" unicode="&#x10b;" horiz-adv-x="1024" 
 />
    <glyph glyph-name="Dcaron" unicode="&#x10e;" horiz-adv-x="1479" 
 />
    <glyph glyph-name="dcaron" unicode="&#x10f;" horiz-adv-x="1259" 
 />
    <glyph glyph-name="Dcroat" unicode="&#x110;" horiz-adv-x="1479" 
 />
    <glyph glyph-name="Emacron" unicode="&#x112;" horiz-adv-x="1366" 
 />
    <glyph glyph-name="emacron" unicode="&#x113;" 
 />
    <glyph glyph-name="Ebreve" unicode="&#x114;" horiz-adv-x="1366" 
 />
    <glyph glyph-name="ebreve" unicode="&#x115;" 
 />
    <glyph glyph-name="Edotaccent" unicode="&#x116;" horiz-adv-x="1366" 
 />
    <glyph glyph-name="edotaccent" unicode="&#x117;" 
 />
    <glyph glyph-name="Eogonek" unicode="&#x118;" horiz-adv-x="1366" 
 />
    <glyph glyph-name="eogonek" unicode="&#x119;" 
 />
    <glyph glyph-name="Ecaron" unicode="&#x11a;" horiz-adv-x="1366" 
 />
    <glyph glyph-name="ecaron" unicode="&#x11b;" 
 />
    <glyph glyph-name="Gcircumflex" unicode="&#x11c;" horiz-adv-x="1593" 
 />
    <glyph glyph-name="gcircumflex" unicode="&#x11d;" 
 />
    <glyph glyph-name="Gdotaccent" unicode="&#x120;" horiz-adv-x="1593" 
 />
    <glyph glyph-name="gdotaccent" unicode="&#x121;" 
 />
    <glyph glyph-name="Gcommaaccent" unicode="&#x122;" horiz-adv-x="1593" 
 />
    <glyph glyph-name="gcommaaccent" unicode="&#x123;" 
 />
    <glyph glyph-name="Hcircumflex" unicode="&#x124;" horiz-adv-x="1479" 
 />
    <glyph glyph-name="hcircumflex" unicode="&#x125;" 
 />
    <glyph glyph-name="Hbar" unicode="&#x126;" horiz-adv-x="1479" 
 />
    <glyph glyph-name="hbar" unicode="&#x127;" 
 />
    <glyph glyph-name="Itilde" unicode="&#x128;" horiz-adv-x="569" 
 />
    <glyph glyph-name="itilde" unicode="&#x129;" horiz-adv-x="569" 
 />
    <glyph glyph-name="Imacron" unicode="&#x12a;" horiz-adv-x="569" 
 />
    <glyph glyph-name="imacron" unicode="&#x12b;" horiz-adv-x="569" 
 />
    <glyph glyph-name="Ibreve" unicode="&#x12c;" horiz-adv-x="569" 
 />
    <glyph glyph-name="ibreve" unicode="&#x12d;" horiz-adv-x="569" 
 />
    <glyph glyph-name="Iogonek" unicode="&#x12e;" horiz-adv-x="569" 
 />
    <glyph glyph-name="iogonek" unicode="&#x12f;" horiz-adv-x="455" 
 />
    <glyph glyph-name="IJ" unicode="&#x132;" horiz-adv-x="1505" 
 />
    <glyph glyph-name="ij" unicode="&#x133;" horiz-adv-x="909" 
 />
    <glyph glyph-name="Jcircumflex" unicode="&#x134;" horiz-adv-x="1024" 
 />
    <glyph glyph-name="jcircumflex" unicode="&#x135;" horiz-adv-x="455" 
 />
    <glyph glyph-name="Kcommaaccent" unicode="&#x136;" horiz-adv-x="1366" 
 />
    <glyph glyph-name="kcommaaccent" unicode="&#x137;" horiz-adv-x="1024" 
 />
    <glyph glyph-name="kgreenlandic" unicode="&#x138;" horiz-adv-x="1024" 
 />
    <glyph glyph-name="Lacute" unicode="&#x139;" 
 />
    <glyph glyph-name="lacute" unicode="&#x13a;" horiz-adv-x="455" 
 />
    <glyph glyph-name="Lcommaaccent" unicode="&#x13b;" 
 />
    <glyph glyph-name="lcommaaccent" unicode="&#x13c;" horiz-adv-x="455" 
 />
    <glyph glyph-name="Lcaron" unicode="&#x13d;" 
 />
    <glyph glyph-name="lcaron" unicode="&#x13e;" horiz-adv-x="597" 
 />
    <glyph glyph-name="Ldot" unicode="&#x13f;" 
 />
    <glyph glyph-name="ldot" unicode="&#x140;" horiz-adv-x="684" 
 />
    <glyph glyph-name="Nacute" unicode="&#x143;" horiz-adv-x="1479" 
 />
    <glyph glyph-name="nacute" unicode="&#x144;" 
 />
    <glyph glyph-name="Ncommaaccent" unicode="&#x145;" horiz-adv-x="1479" 
 />
    <glyph glyph-name="ncommaaccent" unicode="&#x146;" 
 />
    <glyph glyph-name="Ncaron" unicode="&#x147;" horiz-adv-x="1479" 
 />
    <glyph glyph-name="ncaron" unicode="&#x148;" 
 />
    <glyph glyph-name="napostrophe" unicode="&#x149;" horiz-adv-x="1237" 
 />
    <glyph glyph-name="Eng" unicode="&#x14a;" horiz-adv-x="1481" 
 />
    <glyph glyph-name="eng" unicode="&#x14b;" 
 />
    <glyph glyph-name="Omacron" unicode="&#x14c;" horiz-adv-x="1593" 
 />
    <glyph glyph-name="omacron" unicode="&#x14d;" 
 />
    <glyph glyph-name="Obreve" unicode="&#x14e;" horiz-adv-x="1593" 
 />
    <glyph glyph-name="obreve" unicode="&#x14f;" 
 />
    <glyph glyph-name="Ohungarumlaut" unicode="&#x150;" horiz-adv-x="1593" 
 />
    <glyph glyph-name="ohungarumlaut" unicode="&#x151;" 
 />
    <glyph glyph-name="Racute" unicode="&#x154;" horiz-adv-x="1479" 
 />
    <glyph glyph-name="racute" unicode="&#x155;" horiz-adv-x="682" 
 />
    <glyph glyph-name="Rcommaaccent" unicode="&#x156;" horiz-adv-x="1479" 
 />
    <glyph glyph-name="rcommaaccent" unicode="&#x157;" horiz-adv-x="682" 
 />
    <glyph glyph-name="Rcaron" unicode="&#x158;" horiz-adv-x="1479" 
 />
    <glyph glyph-name="rcaron" unicode="&#x159;" horiz-adv-x="682" 
 />
    <glyph glyph-name="Sacute" unicode="&#x15a;" horiz-adv-x="1366" 
 />
    <glyph glyph-name="sacute" unicode="&#x15b;" horiz-adv-x="1024" 
 />
    <glyph glyph-name="Scircumflex" unicode="&#x15c;" horiz-adv-x="1366" 
 />
    <glyph glyph-name="scircumflex" unicode="&#x15d;" horiz-adv-x="1024" 
 />
    <glyph glyph-name="Tcommaaccent" unicode="&#x162;" horiz-adv-x="1251" 
 />
    <glyph glyph-name="tcommaaccent" unicode="&#x163;" horiz-adv-x="569" 
 />
    <glyph glyph-name="Tcaron" unicode="&#x164;" horiz-adv-x="1251" 
 />
    <glyph glyph-name="tcaron" unicode="&#x165;" horiz-adv-x="768" 
 />
    <glyph glyph-name="Tbar" unicode="&#x166;" horiz-adv-x="1251" 
 />
    <glyph glyph-name="tbar" unicode="&#x167;" horiz-adv-x="569" 
 />
    <glyph glyph-name="Utilde" unicode="&#x168;" horiz-adv-x="1479" 
 />
    <glyph glyph-name="utilde" unicode="&#x169;" 
 />
    <glyph glyph-name="Umacron" unicode="&#x16a;" horiz-adv-x="1479" 
 />
    <glyph glyph-name="umacron" unicode="&#x16b;" 
 />
    <glyph glyph-name="Ubreve" unicode="&#x16c;" horiz-adv-x="1479" 
 />
    <glyph glyph-name="ubreve" unicode="&#x16d;" 
 />
    <glyph glyph-name="Uring" unicode="&#x16e;" horiz-adv-x="1479" 
 />
    <glyph glyph-name="uring" unicode="&#x16f;" 
 />
    <glyph glyph-name="Uhungarumlaut" unicode="&#x170;" horiz-adv-x="1479" 
 />
    <glyph glyph-name="uhungarumlaut" unicode="&#x171;" 
 />
    <glyph glyph-name="Uogonek" unicode="&#x172;" horiz-adv-x="1479" 
 />
    <glyph glyph-name="uogonek" unicode="&#x173;" 
 />
    <glyph glyph-name="Wcircumflex" unicode="&#x174;" horiz-adv-x="1933" 
 />
    <glyph glyph-name="wcircumflex" unicode="&#x175;" horiz-adv-x="1479" 
 />
    <glyph glyph-name="Ycircumflex" unicode="&#x176;" horiz-adv-x="1366" 
 />
    <glyph glyph-name="ycircumflex" unicode="&#x177;" horiz-adv-x="1024" 
 />
    <glyph glyph-name="Zacute" unicode="&#x179;" horiz-adv-x="1251" 
 />
    <glyph glyph-name="zacute" unicode="&#x17a;" horiz-adv-x="1024" 
 />
    <glyph glyph-name="Zdotaccent" unicode="&#x17b;" horiz-adv-x="1251" 
 />
    <glyph glyph-name="zdotaccent" unicode="&#x17c;" horiz-adv-x="1024" 
 />
    <glyph glyph-name="longs" unicode="&#x17f;" horiz-adv-x="455" 
 />
    <glyph glyph-name="Aringacute" unicode="&#x1fa;" horiz-adv-x="1366" 
 />
    <glyph glyph-name="aringacute" unicode="&#x1fb;" 
 />
    <glyph glyph-name="AEacute" unicode="&#x1fc;" horiz-adv-x="2048" 
 />
    <glyph glyph-name="aeacute" unicode="&#x1fd;" horiz-adv-x="1821" 
 />
    <glyph glyph-name="Oslashacute" unicode="&#x1fe;" horiz-adv-x="1593" 
 />
    <glyph glyph-name="oslashacute" unicode="&#x1ff;" horiz-adv-x="1251" 
 />
    <glyph glyph-name="tonos" unicode="&#x384;" horiz-adv-x="682" 
 />
    <glyph glyph-name="dieresistonos" unicode="&#x385;" horiz-adv-x="682" 
 />
    <glyph glyph-name="Alphatonos" unicode="&#x386;" horiz-adv-x="1367" 
 />
    <glyph glyph-name="anoteleia" unicode="&#x387;" horiz-adv-x="569" 
 />
    <glyph glyph-name="Epsilontonos" unicode="&#x388;" horiz-adv-x="1606" 
 />
    <glyph glyph-name="Etatonos" unicode="&#x389;" horiz-adv-x="1716" 
 />
    <glyph glyph-name="Iotatonos" unicode="&#x38a;" horiz-adv-x="786" 
 />
    <glyph glyph-name="Omicrontonos" unicode="&#x38c;" horiz-adv-x="1586" 
 />
    <glyph glyph-name="Upsilontonos" unicode="&#x38e;" horiz-adv-x="1752" 
 />
    <glyph glyph-name="Omegatonos" unicode="&#x38f;" horiz-adv-x="1541" 
 />
    <glyph glyph-name="iotadieresistonos" unicode="&#x390;" horiz-adv-x="455" 
 />
    <glyph glyph-name="Alpha" unicode="&#x391;" horiz-adv-x="1366" 
 />
    <glyph glyph-name="Beta" unicode="&#x392;" horiz-adv-x="1366" 
 />
    <glyph glyph-name="Gamma" unicode="&#x393;" horiz-adv-x="1128" 
 />
    <glyph glyph-name="uni0394" unicode="&#x394;" horiz-adv-x="1368" 
 />
    <glyph glyph-name="Epsilon" unicode="&#x395;" horiz-adv-x="1366" 
 />
    <glyph glyph-name="Zeta" unicode="&#x396;" horiz-adv-x="1251" 
 />
    <glyph glyph-name="Eta" unicode="&#x397;" horiz-adv-x="1479" 
 />
    <glyph glyph-name="Theta" unicode="&#x398;" horiz-adv-x="1593" 
 />
    <glyph glyph-name="Iota" unicode="&#x399;" horiz-adv-x="569" 
 />
    <glyph glyph-name="Kappa" unicode="&#x39a;" horiz-adv-x="1366" 
 />
    <glyph glyph-name="Lambda" unicode="&#x39b;" horiz-adv-x="1368" 
 />
    <glyph glyph-name="Mu" unicode="&#x39c;" horiz-adv-x="1706" 
 />
    <glyph glyph-name="Nu" unicode="&#x39d;" horiz-adv-x="1479" 
 />
    <glyph glyph-name="Xi" unicode="&#x39e;" horiz-adv-x="1331" 
 />
    <glyph glyph-name="Omicron" unicode="&#x39f;" horiz-adv-x="1593" 
 />
    <glyph glyph-name="Pi" unicode="&#x3a0;" horiz-adv-x="1479" 
 />
    <glyph glyph-name="Rho" unicode="&#x3a1;" horiz-adv-x="1366" 
 />
    <glyph glyph-name="Sigma" unicode="&#x3a3;" horiz-adv-x="1266" 
 />
    <glyph glyph-name="Tau" unicode="&#x3a4;" horiz-adv-x="1251" 
 />
    <glyph glyph-name="Upsilon" unicode="&#x3a5;" horiz-adv-x="1366" 
 />
    <glyph glyph-name="Phi" unicode="&#x3a6;" horiz-adv-x="1634" 
 />
    <glyph glyph-name="Chi" unicode="&#x3a7;" horiz-adv-x="1366" 
 />
    <glyph glyph-name="Psi" unicode="&#x3a8;" horiz-adv-x="1711" 
 />
    <glyph glyph-name="uni03A9" unicode="&#x3a9;" horiz-adv-x="1531" 
 />
    <glyph glyph-name="Iotadieresis" unicode="&#x3aa;" horiz-adv-x="569" 
 />
    <glyph glyph-name="Upsilondieresis" unicode="&#x3ab;" horiz-adv-x="1366" 
 />
    <glyph glyph-name="alphatonos" unicode="&#x3ac;" horiz-adv-x="1184" 
 />
    <glyph glyph-name="epsilontonos" unicode="&#x3ad;" horiz-adv-x="913" 
 />
    <glyph glyph-name="etatonos" unicode="&#x3ae;" 
 />
    <glyph glyph-name="iotatonos" unicode="&#x3af;" horiz-adv-x="455" 
 />
    <glyph glyph-name="upsilondieresistonos" unicode="&#x3b0;" horiz-adv-x="1120" 
 />
    <glyph glyph-name="alpha" unicode="&#x3b1;" horiz-adv-x="1184" 
 />
    <glyph glyph-name="beta" unicode="&#x3b2;" horiz-adv-x="1178" 
 />
    <glyph glyph-name="gamma" unicode="&#x3b3;" horiz-adv-x="1024" 
 />
    <glyph glyph-name="delta" unicode="&#x3b4;" horiz-adv-x="1140" 
 />
    <glyph glyph-name="epsilon" unicode="&#x3b5;" horiz-adv-x="913" 
 />
    <glyph glyph-name="zeta" unicode="&#x3b6;" horiz-adv-x="903" 
 />
    <glyph glyph-name="eta" unicode="&#x3b7;" 
 />
    <glyph glyph-name="theta" unicode="&#x3b8;" 
 />
    <glyph glyph-name="iota" unicode="&#x3b9;" horiz-adv-x="455" 
 />
    <glyph glyph-name="kappa" unicode="&#x3ba;" horiz-adv-x="1024" 
 />
    <glyph glyph-name="lambda" unicode="&#x3bb;" horiz-adv-x="1024" 
 />
    <glyph glyph-name="uni03BC" unicode="&#x3bc;" horiz-adv-x="1180" 
 />
    <glyph glyph-name="nu" unicode="&#x3bd;" horiz-adv-x="1024" 
 />
    <glyph glyph-name="xi" unicode="&#x3be;" horiz-adv-x="917" 
 />
    <glyph glyph-name="omicron" unicode="&#x3bf;" 
 />
    <glyph glyph-name="pi" unicode="&#x3c0;" horiz-adv-x="1413" 
 />
    <glyph glyph-name="rho" unicode="&#x3c1;" horiz-adv-x="1165" 
 />
    <glyph glyph-name="sigma1" unicode="&#x3c2;" horiz-adv-x="987" 
 />
    <glyph glyph-name="sigma" unicode="&#x3c3;" horiz-adv-x="1264" 
 />
    <glyph glyph-name="tau" unicode="&#x3c4;" horiz-adv-x="809" 
 />
    <glyph glyph-name="upsilon" unicode="&#x3c5;" horiz-adv-x="1120" 
 />
    <glyph glyph-name="phi" unicode="&#x3c6;" horiz-adv-x="1328" 
 />
    <glyph glyph-name="chi" unicode="&#x3c7;" horiz-adv-x="1075" 
 />
    <glyph glyph-name="psi" unicode="&#x3c8;" horiz-adv-x="1460" 
 />
    <glyph glyph-name="omega" unicode="&#x3c9;" horiz-adv-x="1599" 
 />
    <glyph glyph-name="iotadieresis" unicode="&#x3ca;" horiz-adv-x="455" 
 />
    <glyph glyph-name="upsilondieresis" unicode="&#x3cb;" horiz-adv-x="1120" 
 />
    <glyph glyph-name="omicrontonos" unicode="&#x3cc;" 
 />
    <glyph glyph-name="upsilontonos" unicode="&#x3cd;" horiz-adv-x="1120" 
 />
    <glyph glyph-name="omegatonos" unicode="&#x3ce;" horiz-adv-x="1599" 
 />
    <glyph glyph-name="afii10023" unicode="&#x401;" horiz-adv-x="1367" 
 />
    <glyph glyph-name="afii10051" unicode="&#x402;" horiz-adv-x="1771" 
 />
    <glyph glyph-name="afii10052" unicode="&#x403;" horiz-adv-x="1109" 
 />
    <glyph glyph-name="afii10053" unicode="&#x404;" horiz-adv-x="1472" 
 />
    <glyph glyph-name="afii10054" unicode="&#x405;" horiz-adv-x="1366" 
 />
    <glyph glyph-name="afii10055" unicode="&#x406;" horiz-adv-x="569" 
 />
    <glyph glyph-name="afii10056" unicode="&#x407;" horiz-adv-x="569" 
 />
    <glyph glyph-name="afii10057" unicode="&#x408;" horiz-adv-x="1024" 
 />
    <glyph glyph-name="afii10058" unicode="&#x409;" horiz-adv-x="2165" 
 />
    <glyph glyph-name="afii10059" unicode="&#x40a;" horiz-adv-x="2069" 
 />
    <glyph glyph-name="afii10060" unicode="&#x40b;" horiz-adv-x="1749" 
 />
    <glyph glyph-name="afii10061" unicode="&#x40c;" horiz-adv-x="1193" 
 />
    <glyph glyph-name="afii10062" unicode="&#x40e;" horiz-adv-x="1301" 
 />
    <glyph glyph-name="afii10145" unicode="&#x40f;" horiz-adv-x="1472" 
 />
    <glyph glyph-name="afii10017" unicode="&#x410;" horiz-adv-x="1366" 
 />
    <glyph glyph-name="afii10018" unicode="&#x411;" horiz-adv-x="1344" 
 />
    <glyph glyph-name="afii10019" unicode="&#x412;" horiz-adv-x="1366" 
 />
    <glyph glyph-name="afii10020" unicode="&#x413;" horiz-adv-x="1109" 
 />
    <glyph glyph-name="afii10021" unicode="&#x414;" horiz-adv-x="1387" 
 />
    <glyph glyph-name="afii10022" unicode="&#x415;" horiz-adv-x="1366" 
 />
    <glyph glyph-name="afii10024" unicode="&#x416;" horiz-adv-x="1891" 
 />
    <glyph glyph-name="afii10025" unicode="&#x417;" horiz-adv-x="1237" 
 />
    <glyph glyph-name="afii10026" unicode="&#x418;" horiz-adv-x="1472" 
 />
    <glyph glyph-name="afii10027" unicode="&#x419;" horiz-adv-x="1472" 
 />
    <glyph glyph-name="afii10028" unicode="&#x41a;" horiz-adv-x="1193" 
 />
    <glyph glyph-name="afii10029" unicode="&#x41b;" horiz-adv-x="1344" 
 />
    <glyph glyph-name="afii10030" unicode="&#x41c;" horiz-adv-x="1706" 
 />
    <glyph glyph-name="afii10031" unicode="&#x41d;" horiz-adv-x="1479" 
 />
    <glyph glyph-name="afii10032" unicode="&#x41e;" horiz-adv-x="1593" 
 />
    <glyph glyph-name="afii10033" unicode="&#x41f;" horiz-adv-x="1472" 
 />
    <glyph glyph-name="afii10034" unicode="&#x420;" horiz-adv-x="1366" 
 />
    <glyph glyph-name="afii10035" unicode="&#x421;" horiz-adv-x="1479" 
 />
    <glyph glyph-name="afii10036" unicode="&#x422;" horiz-adv-x="1251" 
 />
    <glyph glyph-name="afii10037" unicode="&#x423;" horiz-adv-x="1301" 
 />
    <glyph glyph-name="afii10038" unicode="&#x424;" horiz-adv-x="1557" 
 />
    <glyph glyph-name="afii10039" unicode="&#x425;" horiz-adv-x="1366" 
 />
    <glyph glyph-name="afii10040" unicode="&#x426;" horiz-adv-x="1515" 
 />
    <glyph glyph-name="afii10041" unicode="&#x427;" horiz-adv-x="1365" 
 />
    <glyph glyph-name="afii10042" unicode="&#x428;" horiz-adv-x="1877" 
 />
    <glyph glyph-name="afii10043" unicode="&#x429;" horiz-adv-x="1920" 
 />
    <glyph glyph-name="afii10044" unicode="&#x42a;" horiz-adv-x="1621" 
 />
    <glyph glyph-name="afii10045" unicode="&#x42b;" horiz-adv-x="1813" 
 />
    <glyph glyph-name="afii10046" unicode="&#x42c;" horiz-adv-x="1344" 
 />
    <glyph glyph-name="afii10047" unicode="&#x42d;" horiz-adv-x="1472" 
 />
    <glyph glyph-name="afii10048" unicode="&#x42e;" horiz-adv-x="2069" 
 />
    <glyph glyph-name="afii10049" unicode="&#x42f;" horiz-adv-x="1479" 
 />
    <glyph glyph-name="afii10065" unicode="&#x430;" 
 />
    <glyph glyph-name="afii10066" unicode="&#x431;" horiz-adv-x="1173" 
 />
    <glyph glyph-name="afii10067" unicode="&#x432;" horiz-adv-x="1088" 
 />
    <glyph glyph-name="afii10068" unicode="&#x433;" horiz-adv-x="747" 
 />
    <glyph glyph-name="afii10069" unicode="&#x434;" horiz-adv-x="1195" 
 />
    <glyph glyph-name="afii10070" unicode="&#x435;" 
 />
    <glyph glyph-name="afii10072" unicode="&#x436;" horiz-adv-x="1370" 
 />
    <glyph glyph-name="afii10073" unicode="&#x437;" horiz-adv-x="939" 
 />
    <glyph glyph-name="afii10074" unicode="&#x438;" horiz-adv-x="1144" 
 />
    <glyph glyph-name="afii10075" unicode="&#x439;" horiz-adv-x="1144" 
 />
    <glyph glyph-name="afii10076" unicode="&#x43a;" horiz-adv-x="896" 
 />
    <glyph glyph-name="afii10077" unicode="&#x43b;" horiz-adv-x="1195" 
 />
    <glyph glyph-name="afii10078" unicode="&#x43c;" horiz-adv-x="1408" 
 />
    <glyph glyph-name="afii10079" unicode="&#x43d;" horiz-adv-x="1131" 
 />
    <glyph glyph-name="afii10080" unicode="&#x43e;" 
 />
    <glyph glyph-name="afii10081" unicode="&#x43f;" horiz-adv-x="1109" 
 />
    <glyph glyph-name="afii10082" unicode="&#x440;" 
 />
    <glyph glyph-name="afii10083" unicode="&#x441;" horiz-adv-x="1024" 
 />
    <glyph glyph-name="afii10084" unicode="&#x442;" horiz-adv-x="938" 
 />
    <glyph glyph-name="afii10085" unicode="&#x443;" horiz-adv-x="1024" 
 />
    <glyph glyph-name="afii10086" unicode="&#x444;" horiz-adv-x="1685" 
 />
    <glyph glyph-name="afii10087" unicode="&#x445;" horiz-adv-x="1024" 
 />
    <glyph glyph-name="afii10088" unicode="&#x446;" horiz-adv-x="1173" 
 />
    <glyph glyph-name="afii10089" unicode="&#x447;" horiz-adv-x="1067" 
 />
    <glyph glyph-name="afii10090" unicode="&#x448;" horiz-adv-x="1643" 
 />
    <glyph glyph-name="afii10091" unicode="&#x449;" horiz-adv-x="1685" 
 />
    <glyph glyph-name="afii10092" unicode="&#x44a;" horiz-adv-x="1280" 
 />
    <glyph glyph-name="afii10093" unicode="&#x44b;" horiz-adv-x="1472" 
 />
    <glyph glyph-name="afii10094" unicode="&#x44c;" horiz-adv-x="1067" 
 />
    <glyph glyph-name="afii10095" unicode="&#x44d;" horiz-adv-x="1045" 
 />
    <glyph glyph-name="afii10096" unicode="&#x44e;" horiz-adv-x="1536" 
 />
    <glyph glyph-name="afii10097" unicode="&#x44f;" horiz-adv-x="1109" 
 />
    <glyph glyph-name="afii10071" unicode="&#x451;" 
 />
    <glyph glyph-name="afii10099" unicode="&#x452;" 
 />
    <glyph glyph-name="afii10100" unicode="&#x453;" horiz-adv-x="747" 
 />
    <glyph glyph-name="afii10101" unicode="&#x454;" horiz-adv-x="1045" 
 />
    <glyph glyph-name="afii10102" unicode="&#x455;" horiz-adv-x="1024" 
 />
    <glyph glyph-name="afii10103" unicode="&#x456;" horiz-adv-x="455" 
 />
    <glyph glyph-name="afii10104" unicode="&#x457;" horiz-adv-x="569" 
 />
    <glyph glyph-name="afii10105" unicode="&#x458;" horiz-adv-x="455" 
 />
    <glyph glyph-name="afii10106" unicode="&#x459;" horiz-adv-x="1856" 
 />
    <glyph glyph-name="afii10107" unicode="&#x45a;" horiz-adv-x="1664" 
 />
    <glyph glyph-name="afii10108" unicode="&#x45b;" 
 />
    <glyph glyph-name="afii10109" unicode="&#x45c;" horiz-adv-x="896" 
 />
    <glyph glyph-name="afii10110" unicode="&#x45e;" horiz-adv-x="1024" 
 />
    <glyph glyph-name="afii10193" unicode="&#x45f;" horiz-adv-x="1131" 
 />
    <glyph glyph-name="afii10050" unicode="&#x490;" horiz-adv-x="1001" 
 />
    <glyph glyph-name="afii10098" unicode="&#x491;" horiz-adv-x="842" 
 />
    <glyph glyph-name="Wgrave" unicode="&#x1e80;" horiz-adv-x="1933" 
 />
    <glyph glyph-name="wgrave" unicode="&#x1e81;" horiz-adv-x="1479" 
 />
    <glyph glyph-name="Wacute" unicode="&#x1e82;" horiz-adv-x="1933" 
 />
    <glyph glyph-name="wacute" unicode="&#x1e83;" horiz-adv-x="1479" 
 />
    <glyph glyph-name="Wdieresis" unicode="&#x1e84;" horiz-adv-x="1933" 
 />
    <glyph glyph-name="wdieresis" unicode="&#x1e85;" horiz-adv-x="1479" 
 />
    <glyph glyph-name="Ygrave" unicode="&#x1ef2;" horiz-adv-x="1366" 
 />
    <glyph glyph-name="ygrave" unicode="&#x1ef3;" horiz-adv-x="1024" 
 />
    <glyph glyph-name="afii00208" unicode="&#x2015;" horiz-adv-x="2048" 
 />
    <glyph glyph-name="underscoredbl" unicode="&#x2017;" horiz-adv-x="1131" 
 />
    <glyph glyph-name="quotereversed" unicode="&#x201b;" horiz-adv-x="455" 
 />
    <glyph glyph-name="minute" unicode="&#x2032;" horiz-adv-x="384" 
 />
    <glyph glyph-name="second" unicode="&#x2033;" horiz-adv-x="725" 
 />
    <glyph glyph-name="exclamdbl" unicode="&#x203c;" horiz-adv-x="1024" 
 />
    <glyph glyph-name="uni203E" unicode="&#x203e;" horiz-adv-x="682" 
 />
    <glyph glyph-name="uni207F" unicode="&#x207f;" horiz-adv-x="747" 
 />
    <glyph glyph-name="lira" unicode="&#x20a4;" 
 />
    <glyph glyph-name="peseta" unicode="&#x20a7;" horiz-adv-x="2240" 
 />
    <glyph glyph-name="afii61248" unicode="&#x2105;" horiz-adv-x="1813" 
 />
    <glyph glyph-name="afii61289" unicode="&#x2113;" horiz-adv-x="662" 
 />
    <glyph glyph-name="afii61352" unicode="&#x2116;" horiz-adv-x="2197" 
 />
    <glyph glyph-name="estimated" unicode="&#x212e;" horiz-adv-x="1229" 
 />
    <glyph glyph-name="oneeighth" unicode="&#x215b;" horiz-adv-x="1708" 
 />
    <glyph glyph-name="threeeighths" unicode="&#x215c;" horiz-adv-x="1708" 
 />
    <glyph glyph-name="fiveeighths" unicode="&#x215d;" horiz-adv-x="1708" 
 />
    <glyph glyph-name="seveneighths" unicode="&#x215e;" horiz-adv-x="1708" 
 />
    <glyph glyph-name="arrowleft" unicode="&#x2190;" horiz-adv-x="2048" 
 />
    <glyph glyph-name="arrowup" unicode="&#x2191;" horiz-adv-x="1024" 
 />
    <glyph glyph-name="arrowright" unicode="&#x2192;" horiz-adv-x="2048" 
 />
    <glyph glyph-name="arrowdown" unicode="&#x2193;" horiz-adv-x="1024" 
 />
    <glyph glyph-name="arrowboth" unicode="&#x2194;" horiz-adv-x="2048" 
 />
    <glyph glyph-name="arrowupdn" unicode="&#x2195;" horiz-adv-x="1024" 
 />
    <glyph glyph-name="arrowupdnbse" unicode="&#x21a8;" horiz-adv-x="1024" 
 />
    <glyph glyph-name="orthogonal" unicode="&#x221f;" horiz-adv-x="2005" 
 />
    <glyph glyph-name="intersection" unicode="&#x2229;" horiz-adv-x="1472" 
 />
    <glyph glyph-name="equivalence" unicode="&#x2261;" horiz-adv-x="1195" 
 />
    <glyph glyph-name="house" unicode="&#x2302;" horiz-adv-x="1237" 
 />
    <glyph glyph-name="revlogicalnot" unicode="&#x2310;" horiz-adv-x="1196" 
 />
    <glyph glyph-name="integraltp" unicode="&#x2320;" horiz-adv-x="1237" 
 />
    <glyph glyph-name="integralbt" unicode="&#x2321;" horiz-adv-x="1237" 
 />
    <glyph glyph-name="SF100000" unicode="&#x2500;" horiz-adv-x="1451" 
 />
    <glyph glyph-name="SF110000" unicode="&#x2502;" horiz-adv-x="1280" 
 />
    <glyph glyph-name="SF010000" unicode="&#x250c;" horiz-adv-x="1451" 
 />
    <glyph glyph-name="SF030000" unicode="&#x2510;" horiz-adv-x="1451" 
 />
    <glyph glyph-name="SF020000" unicode="&#x2514;" horiz-adv-x="1451" 
 />
    <glyph glyph-name="SF040000" unicode="&#x2518;" horiz-adv-x="1451" 
 />
    <glyph glyph-name="SF080000" unicode="&#x251c;" horiz-adv-x="1451" 
 />
    <glyph glyph-name="SF090000" unicode="&#x2524;" horiz-adv-x="1451" 
 />
    <glyph glyph-name="SF060000" unicode="&#x252c;" horiz-adv-x="1451" 
 />
    <glyph glyph-name="SF070000" unicode="&#x2534;" horiz-adv-x="1451" 
 />
    <glyph glyph-name="SF050000" unicode="&#x253c;" horiz-adv-x="1451" 
 />
    <glyph glyph-name="SF430000" unicode="&#x2550;" horiz-adv-x="1451" 
 />
    <glyph glyph-name="SF240000" unicode="&#x2551;" horiz-adv-x="1451" 
 />
    <glyph glyph-name="SF510000" unicode="&#x2552;" horiz-adv-x="1451" 
 />
    <glyph glyph-name="SF520000" unicode="&#x2553;" horiz-adv-x="1451" 
 />
    <glyph glyph-name="SF390000" unicode="&#x2554;" horiz-adv-x="1451" 
 />
    <glyph glyph-name="SF220000" unicode="&#x2555;" horiz-adv-x="1451" 
 />
    <glyph glyph-name="SF210000" unicode="&#x2556;" horiz-adv-x="1451" 
 />
    <glyph glyph-name="SF250000" unicode="&#x2557;" horiz-adv-x="1451" 
 />
    <glyph glyph-name="SF500000" unicode="&#x2558;" horiz-adv-x="1451" 
 />
    <glyph glyph-name="SF490000" unicode="&#x2559;" horiz-adv-x="1451" 
 />
    <glyph glyph-name="SF380000" unicode="&#x255a;" horiz-adv-x="1451" 
 />
    <glyph glyph-name="SF280000" unicode="&#x255b;" horiz-adv-x="1451" 
 />
    <glyph glyph-name="SF270000" unicode="&#x255c;" horiz-adv-x="1451" 
 />
    <glyph glyph-name="SF260000" unicode="&#x255d;" horiz-adv-x="1451" 
 />
    <glyph glyph-name="SF360000" unicode="&#x255e;" horiz-adv-x="1451" 
 />
    <glyph glyph-name="SF370000" unicode="&#x255f;" horiz-adv-x="1451" 
 />
    <glyph glyph-name="SF420000" unicode="&#x2560;" horiz-adv-x="1451" 
 />
    <glyph glyph-name="SF190000" unicode="&#x2561;" horiz-adv-x="1451" 
 />
    <glyph glyph-name="SF200000" unicode="&#x2562;" horiz-adv-x="1451" 
 />
    <glyph glyph-name="SF230000" unicode="&#x2563;" horiz-adv-x="1451" 
 />
    <glyph glyph-name="SF470000" unicode="&#x2564;" horiz-adv-x="1451" 
 />
    <glyph glyph-name="SF480000" unicode="&#x2565;" horiz-adv-x="1451" 
 />
    <glyph glyph-name="SF410000" unicode="&#x2566;" horiz-adv-x="1451" 
 />
    <glyph glyph-name="SF450000" unicode="&#x2567;" horiz-adv-x="1451" 
 />
    <glyph glyph-name="SF460000" unicode="&#x2568;" horiz-adv-x="1451" 
 />
    <glyph glyph-name="SF400000" unicode="&#x2569;" horiz-adv-x="1451" 
 />
    <glyph glyph-name="SF540000" unicode="&#x256a;" horiz-adv-x="1451" 
 />
    <glyph glyph-name="SF530000" unicode="&#x256b;" horiz-adv-x="1451" 
 />
    <glyph glyph-name="SF440000" unicode="&#x256c;" horiz-adv-x="1451" 
 />
    <glyph glyph-name="upblock" unicode="&#x2580;" horiz-adv-x="1451" 
 />
    <glyph glyph-name="dnblock" unicode="&#x2584;" horiz-adv-x="1451" 
 />
    <glyph glyph-name="block" unicode="&#x2588;" horiz-adv-x="1451" 
 />
    <glyph glyph-name="lfblock" unicode="&#x258c;" horiz-adv-x="1451" 
 />
    <glyph glyph-name="rtblock" unicode="&#x2590;" horiz-adv-x="1451" 
 />
    <glyph glyph-name="ltshade" unicode="&#x2591;" horiz-adv-x="1451" 
 />
    <glyph glyph-name="shade" unicode="&#x2592;" horiz-adv-x="1451" 
 />
    <glyph glyph-name="dkshade" unicode="&#x2593;" horiz-adv-x="1493" 
 />
    <glyph glyph-name="filledbox" unicode="&#x25a0;" horiz-adv-x="1237" 
 />
    <glyph glyph-name="H22073" unicode="&#x25a1;" horiz-adv-x="1237" 
 />
    <glyph glyph-name="H18543" unicode="&#x25aa;" horiz-adv-x="726" 
 />
    <glyph glyph-name="H18551" unicode="&#x25ab;" horiz-adv-x="726" 
 />
    <glyph glyph-name="filledrect" unicode="&#x25ac;" horiz-adv-x="2048" 
 />
    <glyph glyph-name="triagup" unicode="&#x25b2;" horiz-adv-x="2027" 
 />
    <glyph glyph-name="triagrt" unicode="&#x25ba;" horiz-adv-x="2027" 
 />
    <glyph glyph-name="triagdn" unicode="&#x25bc;" horiz-adv-x="2027" 
 />
    <glyph glyph-name="triaglf" unicode="&#x25c4;" horiz-adv-x="2027" 
 />
    <glyph glyph-name="circle" unicode="&#x25cb;" horiz-adv-x="1237" 
 />
    <glyph glyph-name="H18533" unicode="&#x25cf;" horiz-adv-x="1237" 
 />
    <glyph glyph-name="invbullet" unicode="&#x25d8;" horiz-adv-x="1237" 
 />
    <glyph glyph-name="invcircle" unicode="&#x25d9;" horiz-adv-x="1237" 
 />
    <glyph glyph-name="openbullet" unicode="&#x25e6;" horiz-adv-x="726" 
 />
    <glyph glyph-name="smileface" unicode="&#x263a;" horiz-adv-x="2091" 
 />
    <glyph glyph-name="invsmileface" unicode="&#x263b;" horiz-adv-x="2155" 
 />
    <glyph glyph-name="sun" unicode="&#x263c;" horiz-adv-x="1877" 
 />
    <glyph glyph-name="female" unicode="&#x2640;" horiz-adv-x="1536" 
 />
    <glyph glyph-name="male" unicode="&#x2642;" horiz-adv-x="1536" 
 />
    <glyph glyph-name="spade" unicode="&#x2660;" horiz-adv-x="1088" 
 />
    <glyph glyph-name="club" unicode="&#x2663;" horiz-adv-x="1344" 
 />
    <glyph glyph-name="heart" unicode="&#x2665;" horiz-adv-x="1216" 
 />
    <glyph glyph-name="diamond" unicode="&#x2666;" horiz-adv-x="1045" 
 />
    <glyph glyph-name="musicalnote" unicode="&#x266a;" horiz-adv-x="1024" 
 />
    <glyph glyph-name="musicalnotedbl" unicode="&#x266b;" horiz-adv-x="1536" 
 />
    <glyph glyph-name="uniF004" unicode="&#xf004;" horiz-adv-x="682" 
 />
    <glyph glyph-name="uniF005" unicode="&#xf005;" horiz-adv-x="682" 
 />
  </font>
</defs>
</svg>
